<?xml version="1.0" standalone="no"?><!DOCTYPE svg PUBLIC "-//W3C//DTD SVG 1.1//EN" "http://www.w3.org/Graphics/SVG/1.1/DTD/svg11.dtd"><svg t="1664742631089" class="icon" viewBox="0 0 1024 1024" version="1.1" xmlns="http://www.w3.org/2000/svg" p-id="5144" xmlns:xlink="http://www.w3.org/1999/xlink" width="200" height="200"><path d="M832 0H192C85.952 0 0 86.016 0 192v640a192 192 0 0 0 192 192h640a192 192 0 0 0 192-192V192c0-105.984-85.952-192-192-192z m64 832c0 35.392-28.608 64-64 64H192a64 64 0 0 1-64-64V192c0-35.328 28.672-64 64-64h640a64 64 0 0 1 64 64v640zM669.376 330.88L443.136 557.12l-90.56-90.496c-24.96-25.024-65.472-25.024-90.496 0s-25.024 65.536 0 90.496l135.808 135.744a63.936 63.936 0 0 0 90.496 0l271.488-271.488c25.024-25.024 25.024-65.472 0-90.496s-65.472-25.024-90.496 0z" fill="" p-id="5145"></path></svg>